# xmcd CD database generated by RipIT
#
# Track frame offsets:
# 150
# 21465
# 36821
# 51602
# 69764
# 97967
# 116724
# 138758
# 169890
# 194674
#
# Disc length: 2974 seconds
#
# Revision: 0
# Processed by: cddbd v1.5.2PL0 Copyright (c) Steve Scherf et al.
# Submitted via: RipIT 3.9.0 www.suwald.com/ripit/ripit.html on 2016-01-30 at 09:35
#
DISCID=8e0b9c0a
DTITLE=Oratnitza - Folktron
DYEAR=2015
DGENRE=Folk
TTITLE0=Начало
TTITLE1=Стъпил Добри
TTITLE2=Янинка
TTITLE3=Желкя
TTITLE4=Кажи, Райно
TTITLE5=Гано, Гано
TTITLE6=Дойди, дойди
TTITLE7=Трап, моме!
TTITLE8=Хубава си, моя горо
TTITLE9=Желкя Ремикс
EXTD=
EXTT0=
EXTT1=
EXTT2=
EXTT3=
EXTT4=
EXTT5=
EXTT6=
EXTT7=
EXTT8=
EXTT9=
PLAYORDER=
